<svg width="36" height="36" viewBox="0 0 36 36" fill="none" xmlns="http://www.w3.org/2000/svg">
<path d="M36 27C36 28.0609 35.5786 29.0783 34.8284 29.8284C34.0783 30.5786 33.0609 31 32 31H4C2.93913 31 1.92172 30.5786 1.17157 29.8284C0.421427 29.0783 0 28.0609 0 27V9C0 7.93913 0.421427 6.92172 1.17157 6.17157C1.92172 5.42143 2.93913 5 4 5H32C33.0609 5 34.0783 5.42143 34.8284 6.17157C35.5786 6.92172 36 7.93913 36 9V27Z" fill="#C60A1D"/>
<path d="M0 12H36V24H0V12Z" fill="#FFC400"/>
<path d="M9 17V20C9 20.7956 9.31607 21.5587 9.87868 22.1213C10.4413 22.6839 11.2044 23 12 23C12.7956 23 13.5587 22.6839 14.1213 22.1213C14.6839 21.5587 15 20.7956 15 20V17H9Z" fill="#EA596E"/>
<path d="M12 16H15V19H12V16Z" fill="#F4A2B2"/>
<path d="M9 16H12V19H9V16Z" fill="#DD2E44"/>
<path d="M12 16C13.6569 16 15 15.3284 15 14.5C15 13.6716 13.6569 13 12 13C10.3431 13 9 13.6716 9 14.5C9 15.3284 10.3431 16 12 16Z" fill="#EA596E"/>
<path d="M12 14.5C13.6569 14.5 15 14.1642 15 13.75C15 13.3358 13.6569 13 12 13C10.3431 13 9 13.3358 9 13.75C9 14.1642 10.3431 14.5 12 14.5Z" fill="#FFAC33"/>
<path d="M7 16H8V23H7V16ZM16 16H17V23H16V16Z" fill="#99AAB5"/>
<path d="M6 22H9V23H6V22ZM15 22H18V23H15V22ZM7 15H8V16H7V15ZM16 15H17V16H16V15Z" fill="#66757F"/>
</svg>
