<svg width="24" height="24" viewBox="0 0 24 24" fill="none" xmlns="http://www.w3.org/2000/svg">
<g clip-path="url(#clip0_14_56)">
<path d="M23.4697 3.74333C23.3321 3.01981 23.0635 2.36019 22.6909 1.83017C22.3182 1.30015 21.8544 0.918215 21.3457 0.7224C19.4833 0 11.9876 0 11.9876 0C11.9876 0 4.49152 0.0218666 2.62909 0.744267C2.12035 0.940093 1.65656 1.32205 1.28391 1.85209C0.911253 2.38214 0.642732 3.04178 0.505086 3.76533C-0.0582574 8.47173 -0.276789 15.6432 0.520555 20.1613C0.658215 20.8849 0.926742 21.5445 1.2994 22.0745C1.67205 22.6045 2.13583 22.9865 2.64456 23.1823C4.50699 23.9047 12.0029 23.9047 12.0029 23.9047C12.0029 23.9047 19.4986 23.9047 21.361 23.1823C21.8697 22.9865 22.3335 22.6045 22.7062 22.0745C23.0789 21.5445 23.3474 20.8849 23.4851 20.1613C24.0793 15.4483 24.2624 8.28133 23.4697 3.74347V3.74333Z" fill="#FF0000"/>
<path d="M9.60205 17.0746L15.8203 11.9522L9.60205 6.82983V17.0746Z" fill="white"/>
</g>
<defs>
<clipPath id="clip0_14_56">
<rect width="24" height="24" fill="white"/>
</clipPath>
</defs>
</svg>
