<svg width="24" height="24" viewBox="0 0 24 24" fill="none" xmlns="http://www.w3.org/2000/svg">
<path d="M8.01594 6.98199C7.74993 6.98199 7.49481 7.08767 7.30671 7.27577C7.11861 7.46387 7.01294 7.71898 7.01294 7.98499C7.01294 8.25101 7.11861 8.50612 7.30671 8.69422C7.49481 8.88232 7.74993 8.98799 8.01594 8.98799H15.9659C16.232 8.98799 16.4871 8.88232 16.6752 8.69422C16.8633 8.50612 16.9689 8.25101 16.9689 7.98499C16.9689 7.71898 16.8633 7.46387 16.6752 7.27577C16.4871 7.08767 16.232 6.98199 15.9659 6.98199H8.01594V6.98199ZM7.01594 12C7.01594 11.448 7.46294 10.997 8.01594 10.997H15.9659C16.232 10.997 16.4871 11.1027 16.6752 11.2908C16.8633 11.4789 16.9689 11.734 16.9689 12C16.9689 12.266 16.8633 12.5211 16.6752 12.7092C16.4871 12.8973 16.232 13.003 15.9659 13.003H8.01594C7.46294 13.003 7.01594 12.553 7.01594 12V12ZM8.02494 15.012C7.75879 15.012 7.50355 15.1177 7.31536 15.3059C7.12716 15.4941 7.02144 15.7493 7.02144 16.0155C7.02144 16.2816 7.12716 16.5369 7.31536 16.7251C7.50355 16.9133 7.75879 17.019 8.02494 17.019H15.9749C16.2411 17.019 16.4963 16.9133 16.6845 16.7251C16.8727 16.5369 16.9784 16.2816 16.9784 16.0155C16.9784 15.7493 16.8727 15.4941 16.6845 15.3059C16.4963 15.1177 16.2411 15.012 15.9749 15.012H8.02494V15.012Z" fill="black"/>
<path fill-rule="evenodd" clip-rule="evenodd" d="M3 6C3 5.20435 3.31607 4.44129 3.87868 3.87868C4.44129 3.31607 5.20435 3 6 3H18C18.7956 3 19.5587 3.31607 20.1213 3.87868C20.6839 4.44129 21 5.20435 21 6V18C21 18.7956 20.6839 19.5587 20.1213 20.1213C19.5587 20.6839 18.7956 21 18 21H6C5.20435 21 4.44129 20.6839 3.87868 20.1213C3.31607 19.5587 3 18.7956 3 18V6ZM6 5H18C18.2652 5 18.5196 5.10536 18.7071 5.29289C18.8946 5.48043 19 5.73478 19 6V18C19 18.2652 18.8946 18.5196 18.7071 18.7071C18.5196 18.8946 18.2652 19 18 19H6C5.73478 19 5.48043 18.8946 5.29289 18.7071C5.10536 18.5196 5 18.2652 5 18V6C5 5.73478 5.10536 5.48043 5.29289 5.29289C5.48043 5.10536 5.73478 5 6 5V5Z" fill="black"/>
</svg>
